<svg class="icon__svg" xmlns="http://www.w3.org/2000/svg" style="display:none;">
  <!-- Dashboard -->
  <symbol id="dashboard" viewBox="0 0 32 32">
    <path fill="#fff" d="M25,18c1.7,0,3-1.3,3-3c0-1.7-1.3-3-3-3c-1.7,0-3,1.3-3,3C22,16.7,23.3,18,25,18z M24,14h2v2h-2V14z M25,26
      c1.7,0,3-1.3,3-3c0-1.7-1.3-3-3-3c-1.7,0-3,1.3-3,3C22,24.7,23.3,26,25,26z M24,22h2v2h-2V22z M17,26c1.7,0,3-1.3,3-3
      c0-1.7-1.3-3-3-3c-1.7,0-3,1.3-3,3C14,24.7,15.3,26,17,26z M16,22h2v2h-2V22z M28,0H6C3.8,0,2,1.8,2,4v24c0,2.2,1.8,4,4,4h22
      c2.2,0,4-1.8,4-4V4C32,1.8,30.2,0,28,0z M30,28c0,1.1-0.9,2-2,2H6c-1.1,0-2-0.9-2-2V8h26V28z M30,6H4V4c0-1.1,0.9-2,2-2h22
      c1.1,0,2,0.9,2,2V6z M17,18c1.7,0,3-1.3,3-3c0-1.7-1.3-3-3-3c-1.7,0-3,1.3-3,3C14,16.7,15.3,18,17,18z M16,14h2v2h-2V14z M9,26
      c1.7,0,3-1.3,3-3c0-1.7-1.3-3-3-3c-1.7,0-3,1.3-3,3C6,24.7,7.3,26,9,26z M8,22h2v2H8V22z M9,18c1.7,0,3-1.3,3-3c0-1.7-1.3-3-3-3
      c-1.7,0-3,1.3-3,3C6,16.7,7.3,18,9,18z M8,14h2v2H8V14z"/>
    </symbol>

    <!-- User -->
    <symbol id="user" viewBox="0 0 32 32">
      <path class="st0" d="M18,16.4c1.3-1.7,2-3.9,2-6.4c0-5.5-4-10-9-10C6,0,2,4.5,2,10c0,2.4,0.8,4.6,2,6.4c-2.3,0.8-4,3-4,5.6v4
        c0,3.3,2.7,6,6,6h10c3.3,0,6-2.7,6-6v-4C22,19.4,20.3,17.2,18,16.4z M4,10c0-4.4,3.1-8,7-8c3.9,0,7,3.6,7,8s-3.1,8-7,8
        C7.1,18,4,14.4,4,10z M20,25.5c0,2.5-2.2,4.5-4.9,4.5H6.9C4.2,30,2,28,2,25.5v-3c0-2.1,1.6-3.9,3.8-4.4C7.2,19.3,9,20,11,20
        c2,0,3.8-0.7,5.2-1.9c2.2,0.5,3.8,2.2,3.8,4.4V25.5z M23,8h8c0.6,0,1-0.4,1-1c0-0.6-0.4-1-1-1h-8c-0.6,0-1,0.4-1,1
        C22,7.6,22.4,8,23,8z M31,24h-6c-0.6,0-1,0.4-1,1c0,0.6,0.4,1,1,1h6c0.6,0,1-0.4,1-1C32,24.4,31.6,24,31,24z M31,12h-8
        c-0.6,0-1,0.4-1,1c0,0.6,0.4,1,1,1h8c0.6,0,1-0.4,1-1C32,12.4,31.6,12,31,12z M31,18h-6c-0.6,0-1,0.4-1,1c0,0.6,0.4,1,1,1h6
        c0.6,0,1-0.4,1-1C32,18.4,31.6,18,31,18z"/>
      </symbol>
    </svg>
