<svg xmlns="http://www.w3.org/2000/svg" viewBox="0 0 512 512"><circle cx="256" cy="256" r="256" fill="#c2d5d8"/><path d="M499.36 335.472c-.152-.364-.244-.748-.428-1.084a10.413 10.413 0 0 0-1-2.46c-.228-.86-.556-1.68-.984-2.444a10.264 10.264 0 0 0-.992-2.456 10.33 10.33 0 0 0-.992-2.456 10.344 10.344 0 0 0-.996-2.452 10.64 10.64 0 0 0-.988-2.448 10.33 10.33 0 0 0-.992-2.456 10.22 10.22 0 0 0-1.004-2.468 9.968 9.968 0 0 0-.984-2.436 10.14 10.14 0 0 0-.996-2.46c-.228-.86-.556-1.68-.988-2.444a9.793 9.793 0 0 0-.992-2.452 9.882 9.882 0 0 0-.992-2.456 10.046 10.046 0 0 0-.996-2.46c-.224-.86-.552-1.68-.988-2.448-.224-.86-.552-1.68-.988-2.448a10.067 10.067 0 0 0-.992-2.456 10.217 10.217 0 0 0-1-2.46c-.224-.86-.552-1.68-.984-2.444a10.103 10.103 0 0 0-.992-2.452 10.264 10.264 0 0 0-.992-2.456 10.33 10.33 0 0 0-.992-2.456 10.53 10.53 0 0 0-.992-2.46c-.232-.86-.556-1.68-.992-2.44a10.33 10.33 0 0 0-.992-2.456 10.39 10.39 0 0 0-.988-2.452 10.472 10.472 0 0 0-.996-2.46c-.228-.86-.556-1.68-.988-2.444a9.916 9.916 0 0 0-.992-2.452 9.972 9.972 0 0 0-.992-2.46c-.224-.86-.56-1.688-.996-2.452a10.294 10.294 0 0 0-.988-2.448 10.314 10.314 0 0 0-1.004-2.472 9.873 9.873 0 0 0-.984-2.44 9.916 9.916 0 0 0-.992-2.452 9.983 9.983 0 0 0-.996-2.46c-.224-.86-.552-1.68-.988-2.448a10.007 10.007 0 0 0-.992-2.456 9.916 9.916 0 0 0-.992-2.452 10.195 10.195 0 0 0-.992-2.46c-.228-.86-.556-1.68-.992-2.448a10.213 10.213 0 0 0-.984-2.452 10.534 10.534 0 0 0-.992-2.456 10.553 10.553 0 0 0-1-2.46c-.228-.86-.556-1.68-.984-2.448a10.235 10.235 0 0 0-.992-2.452 10.264 10.264 0 0 0-.992-2.456 10.33 10.33 0 0 0-.992-2.456 10.206 10.206 0 0 0-.996-2.46c-.232-.86-.552-1.68-.988-2.444a10.33 10.33 0 0 0-.992-2.456 10.33 10.33 0 0 0-.992-2.456 10.206 10.206 0 0 0-.996-2.46c-.224-.86-.552-1.68-.988-2.444a10.007 10.007 0 0 0-.992-2.456 10.007 10.007 0 0 0-.992-2.456 9.955 9.955 0 0 0-.996-2.456 9.747 9.747 0 0 0-1-2.464 10.02 10.02 0 0 0-.98-2.44 10.33 10.33 0 0 0-.992-2.456 10.235 10.235 0 0 0-.992-2.452 10.392 10.392 0 0 0-.992-2.46c-.232-.86-.56-1.68-.992-2.448a10.33 10.33 0 0 0-.992-2.456 10.235 10.235 0 0 0-.992-2.452 10.392 10.392 0 0 0-.992-2.46c-.228-.86-.556-1.68-.992-2.448a10.49 10.49 0 0 0-.988-2.456 10.235 10.235 0 0 0-.992-2.452 10.206 10.206 0 0 0-.996-2.46 10.43 10.43 0 0 0-.988-2.448 9.916 9.916 0 0 0-.992-2.452 9.882 9.882 0 0 0-.992-2.456 10.007 10.007 0 0 0-.992-2.456 10.206 10.206 0 0 0-.996-2.46c-.228-.86-.556-1.68-.988-2.444a9.882 9.882 0 0 0-.992-2.456 10.007 10.007 0 0 0-.992-2.456 10.046 10.046 0 0 0-.996-2.46c-.224-.86-.552-1.68-.984-2.444a10.197 10.197 0 0 0-.992-2.456 10.33 10.33 0 0 0-.992-2.456c-.232-.872-.564-1.7-1.008-2.48a10.221 10.221 0 0 0-.976-2.424 10.605 10.605 0 0 0-.992-2.456 10.676 10.676 0 0 0-.992-2.456 10.553 10.553 0 0 0-1-2.46c-.228-.86-.556-1.68-.984-2.444a10.33 10.33 0 0 0-.992-2.456 10.33 10.33 0 0 0-.992-2.456 10.235 10.235 0 0 0-.992-2.452 10.076 10.076 0 0 0-.996-2.46c-.224-.86-.552-1.68-.988-2.448a10.33 10.33 0 0 0-.992-2.456c-.428-1.684-1.252-3.252-2.5-4.516a9.982 9.982 0 0 0-7.14-3c-1.484 0-3.036.076-4.616.176-1.384.084-2.796.22-4.244.364-.008.004-.016.004-.028.004-30.14 3.152-73.896 21.216-102.52 47.276-1.82-1.128-3.736-2.076-5.656-2.924-.328-.144-.656-.296-.988-.44a63.588 63.588 0 0 0-1.752-.692 55.183 55.183 0 0 0-2.9-1.024 55.925 55.925 0 0 0-14.084-2.62c-1.188-.308-2.268-.348-3.272-.348-2.036 0-4.02.14-5.976.348h-.02c-8.44.896-16.116 3.592-22.604 7.472-6.132-5.584-12.976-10.796-20.228-15.584C177.184 108.104 141.976 96 116 96c-.556 0-1.1.064-1.64.164-.5.084-.98.22-1.46.376l-.008.004c-1.508.496-2.904 1.3-4.032 2.464a9.998 9.998 0 0 0-2.86 7.188c.476 23.632 11.436 52.188 21.092 77.408 3.236 8.416 6.348 16.544 8.908 24.044V276c0 1.848.092 3.68.24 5.504.048.56.104 1.104.16 1.66.132 1.304.3 2.6.5 3.9.088.584.18 1.156.28 1.74.268 1.488.584 2.956.94 4.416.076.296.124.596.204.9.436 1.696.94 3.36 1.492 5.008.2.592.416 1.196.636 1.78a75.966 75.966 0 0 0 1.236 3.212c.152.376.316.744.476 1.108.172.444.336.908.516 1.344.152.376.316.748.476 1.108.172.448.336.908.516 1.344.16.392.328.768.492 1.152.168.432.324.872.5 1.3.152.376.316.744.476 1.108.172.444.336.908.516 1.344.152.38.316.748.476 1.108.172.448.336.908.516 1.344.152.384.316.752.476 1.112.172.448.336.904.516 1.344.152.376.316.748.476 1.112.172.444.336.904.516 1.344.16.388.328.764.492 1.148.168.428.324.876.5 1.304.152.376.316.744.476 1.104.172.448.336.912.516 1.344.152.38.316.748.476 1.112.172.444.336.904.516 1.344.152.376.316.744.476 1.108.172.444.336.908.516 1.344.172.416.352.836.532 1.252.156.408.3.808.464 1.212.152.376.316.748.476 1.108.172.448.332.908.516 1.344.152.384.316.752.476 1.112.172.448.332.904.516 1.344.152.376.316.748.476 1.112.172.44.332.904.516 1.344.16.388.328.76.492 1.148.168.428.324.876.5 1.304.152.376.316.744.476 1.104.172.448.332.912.516 1.344.152.38.316.748.476 1.112.172.444.332.904.516 1.344.152.376.316.748.476 1.108.172.444.332.908.516 1.344.16.392.328.764.492 1.156.168.424.324.868.5 1.296.152.376.316.744.476 1.108.172.444.332.908.516 1.344.152.38.316.752.476 1.108.172.448.332.908.516 1.344.152.38.316.752.476 1.116.172.44.332.904.516 1.344.152.376.316.744.476 1.104.172.448.332.912.516 1.348.16.392.328.764.492 1.152.168.424.324.872.5 1.296.152.38.316.748.476 1.112.172.444.332.904.516 1.344.152.376.316.748.476 1.108.172.444.332.908.516 1.344.152.376.316.748.476 1.108.172.444.332.908.516 1.348.16.388.328.76.492 1.152.168.428.324.872.5 1.296.152.38.316.748.476 1.108.172.448.332.908.516 1.344.152.376.316.752.476 1.112.172.444.332.904.516 1.344.152.38.316.748.476 1.108.172.448.332.908.516 1.348.16.388.328.764.492 1.152.168.424.324.872.5 1.292.152.384.316.752.476 1.112.172.448.332.904.516 1.348.152.376.316.748.476 1.108.172.444.332.908.516 1.344.152.376.316.744.476 1.108.172.444.332.908.516 1.348.168.408.344.8.516 1.212.16.416.312.836.48 1.248.16.396.328.768.492 1.156.168.428.324.868.5 1.296.152.376.312.744.476 1.112.172.44.336.904.516 1.344.152.376.312.748.476 1.112.172.444.336.904.516 1.344.152.376.312.744.476 1.108.172.444.336.908.516 1.344.16.392.328.764.492 1.148.168.432.32.876.5 1.3.148.38.312.748.472 1.112.176.444.336.904.52 1.344.148.376.312.744.472 1.108.176.444.336.908.52 1.344.148.38.312.748.472 1.108.176.448.336.908.52 1.344.156.392.328.768.492 1.152.164.432.32.872.5 1.3.148.376.312.744.472 1.108.172.444.336.908.52 1.348.148.376.312.744.472 1.112.172.44.336.904.52 1.344.148.376.312.744.472 1.104.172.448.336.912.52 1.344.148.38.312.748.472 1.112.172.444.336.908.52 1.344.156.388.324.764.488 1.152.168.432.324.872.5 1.3.152.376.316.744.476 1.108.172.444.336.908.516 1.344.152.376.316.748.476 1.108.172.444.336.908.516 1.344.152.384.316.752.476 1.112.172.448.336.904.516 1.344.16.388.328.768.492 1.152.168.428.324.872.5 1.296.152.38.316.748.476 1.112.172.444.336.904.516 1.348.152.376.316.744.476 1.104.172.448.336.912.516 1.344.152.38.316.748.476 1.112.172.444.336.904.516 1.344.16.388.328.764.492 1.148.168.432.324.876.5 1.304.152.376.316.744.476 1.108.172.444.336.908.516 1.344.152.376.316.744.476 1.108.172.444.336.908.516 1.344.168.416.344.804.516 1.216.164.416.312.836.48 1.248.152.38.316.748.476 1.116.172.44.332.904.516 1.344.16.384.328.76.492 1.148.168.428.324.876.5 1.3.152.38.316.748.476 1.108.172.448.332.908.516 1.344.152.38.316.748.476 1.112.172.444.332.904.516 1.344.152.376.316.744.476 1.108.172.444.332.908.516 1.344.16.392.328.764.492 1.152.168.428.324.872.5 1.3.152.376.316.744.476 1.108.172.444.332.908.516 1.344.152.38.316.748.476 1.108.172.448.332.908.516 1.344.152.376.316.748.476 1.112.172.444.332.904.516 1.344.16.388.328.764.492 1.152.168.428.324.876.5 1.3.152.376.316.748.476 1.104.172.448.332.912.516 1.344.152.384.316.752.476 1.112.172.448.332.904.516 1.348.152.376.316.744.476 1.108.172.444.332.908.516 1.344.152.376.316.744.476 1.112.172.44.332.904.516 1.344.16.388.328.76.492 1.144.168.436.324.88.5 1.304.152.38.316.748.476 1.108.172.448.332.908.516 1.344.152.376.316.744.476 1.112.172.44.332.904.516 1.344.152.376.316.748.476 1.112.172.444.332.904.516 1.344.16.388.328.764.492 1.148.168.428.324.876.5 1.296.152.384.316.752.476 1.112.172.448.332.904.516 1.344.152.38.316.748.476 1.112.172.444.332.904.516 1.344.152.376.316.744.476 1.108l.372.968c10.204 1.244 20.572 1.944 31.1 1.944 113.652.228 209.936-73.836 243.38-176.3z" fill="#b7c9cc"/><path d="M386 276.22c-5.5-14.28-10-33.72-10-68.58H136c0 34.86-4.5 54.288-10 68.58-5.5 14.284 11.16 26.556 22.9 35.6C194.5 347 198.5 384 256 384s61.5-37 107.1-72.18c11.74-9.056 28.4-21.32 22.9-35.6z" fill="#e6e6e6"/><path d="M386 276.22c-5.5-14.28-10-33.72-10-68.58h-12c0 34.86 4.5 54.288 10 68.58 5.5 14.284-11.16 26.556-22.9 35.6-43.956 33.916-49.276 69.5-101.1 72.024 1.94.092 3.924.156 6 .156 57.5 0 61.5-37 107.1-72.18 11.74-9.056 28.4-21.32 22.9-35.6z" fill="#ccc"/><circle cx="299" cy="257" r="20" fill="#f5f5f5"/><circle cx="299" cy="257" r="12" fill="#242424"/><circle cx="211" cy="257" r="20" fill="#f5f5f5"/><circle cx="211" cy="257" r="12" fill="#242424"/><path d="M403.14 99a9.965 9.965 0 0 0-7.14-3c-29.804 0-79.836 19.072-111.408 47.82C276.6 139.04 266.828 136 256 136s-20.604 3.04-28.6 7.82C195.824 115.072 145.796 96 116 96a9.94 9.94 0 0 0-7.14 3.008 9.998 9.998 0 0 0-2.86 7.188c.476 23.632 11.436 52.188 21.092 77.408 3.236 8.416 6.348 28.544 8.908 36.044C242 217.672 236 314.672 236 346h40.064c0-31.32-5.992-128.28 99.936-126.352v-12c2.564-7.508 5.684-15.644 8.916-24.068 9.664-25.196 20.616-53.752 21.084-77.384A10.004 10.004 0 0 0 403.14 99z" fill="#cc803d"/><path d="M280.384 147.58c1.416-1.276 2.9-2.52 4.368-3.752-7.664-4.74-19-7.82-28.752-7.82-2.044 0-4.036.14-6 .348 8.436.888 23.908 7.344 30.384 11.224zM403.14 99a9.965 9.965 0 0 0-7.14-3c-2.78 0-5.78.22-8.892.544 1.508.496 2.908 1.3 4.032 2.456a10.004 10.004 0 0 1 2.86 7.196c-.468 23.624-11.42 52.188-21.084 77.384-3.236 8.416-6.36 16.56-8.916 24.068v12C258.072 217.72 264.064 314.68 264.064 346h12c0-31.32-5.992-128.28 99.936-126.352v-12c2.564-7.508 5.684-15.644 8.916-24.068 9.664-25.196 20.612-53.752 21.084-77.384A10.004 10.004 0 0 0 403.14 99zm-183.924 48.58c2.392-1.42 5.496-2.676 8.184-3.752C195.084 114.672 145.5 96 116 96c-1.072 0-2.112.216-3.108.544 30.132 3.152 77.692 24.968 106.324 51.036z" fill="#b37035"/><path d="M256 376c-10-10-20-18.976-20-30.008 0-11.028 8.976-19.992 20-19.992s20 8.964 20 19.992C276 357.024 266 366 256 376z" fill="#242424"/><path d="M386 116c-10 0-60 10-70 30 10 10 50 40 50 40 10-20 20-60 20-70zm-260 0c10 0 60 10 70 30-10 10-50 40-50 40-10-20-20-60-20-70z" fill="#b36624"/></svg>